<?xml version="1.0" standalone="no"?>
<!DOCTYPE svg PUBLIC "-//W3C//DTD SVG 20010904//EN"
 "http://www.w3.org/TR/2001/REC-SVG-20010904/DTD/svg10.dtd">
<svg version="1.0" xmlns="http://www.w3.org/2000/svg"
 width="16.000000pt" height="16.000000pt" viewBox="0 0 16.000000 16.000000"
 preserveAspectRatio="xMidYMid meet">
<metadata>
Created by potrace 1.11, written by Peter Selinger 2001-2013
</metadata>
<g transform="translate(0.000000,16.000000) scale(0.003200,-0.003200)"
fill="#000000" stroke="none">
<path d="M2530 4953 c-27 -9 -40 -36 -40 -80 0 -34 5 -46 25 -59 23 -15 27
-15 49 -1 55 36 25 160 -34 140z m20 -73 c0 -16 -4 -30 -10 -30 -11 0 -14 43
-3 53 11 12 13 8 13 -23z"/>
<path d="M2302 4938 c-18 -18 -15 -103 4 -122 38 -39 84 -7 84 59 0 26 -6 50
-16 59 -18 19 -55 21 -72 4z m48 -63 c0 -14 -4 -25 -10 -25 -5 0 -10 11 -10
25 0 14 5 25 10 25 6 0 10 -11 10 -25z"/>
<path d="M2419 4945 c-1 -3 -1 -16 -1 -30 0 -100 1 -105 25 -105 21 0 22 3 19
70 -3 61 -6 70 -23 70 -10 0 -19 -2 -20 -5z"/>
<path d="M2626 4930 c-3 -8 -6 -39 -7 -69 -3 -50 -1 -55 19 -56 16 -1 22 4 23
19 0 12 2 44 3 73 3 45 1 51 -15 50 -11 -1 -21 -8 -23 -17z"/>
<path d="M2216 4870 c7 -71 13 -84 36 -75 11 5 15 16 12 43 -10 90 -14 101
-35 99 -18 -1 -19 -6 -13 -67z"/>
<path d="M2706 4918 c-32 -45 -13 -128 29 -128 44 0 77 88 48 129 -19 28 -58
27 -77 -1z m35 -71 c-13 -13 -15 11 -4 40 7 16 8 15 11 -6 2 -13 -1 -28 -7
-34z"/>
<path d="M2100 4910 c-16 -16 -19 -28 -14 -57 9 -56 21 -73 52 -73 39 0 52 17
52 67 0 71 -49 104 -90 63z m50 -61 c0 -10 -4 -19 -10 -19 -5 0 -10 12 -10 26
0 14 4 23 10 19 6 -3 10 -15 10 -26z"/>
<path d="M2825 4887 c-3 -23 -8 -54 -11 -68 -4 -19 0 -28 12 -33 26 -10 32 3
39 74 5 60 4 66 -14 67 -16 1 -21 -7 -26 -40z"/>
<path d="M2018 4903 c-13 -3 -14 -10 -8 -36 5 -18 11 -49 15 -69 6 -40 11 -43
34 -29 11 7 12 20 1 75 -7 36 -15 65 -19 65 -3 -1 -13 -3 -23 -6z"/>
<path d="M2910 4895 c-7 -9 -16 -33 -20 -55 -6 -31 -3 -43 12 -60 10 -11 25
-20 33 -20 20 0 55 36 56 58 0 9 2 25 4 34 8 44 -57 77 -85 43z m31 -78 c-13
-13 -15 11 -4 40 7 16 8 15 11 -6 2 -13 -1 -28 -7 -34z"/>
<path d="M1900 4870 c-34 -34 -3 -130 44 -130 26 0 53 27 51 50 -1 8 -3 25 -3
38 -2 26 -35 62 -57 62 -8 0 -24 -9 -35 -20z m50 -68 c0 -21 -2 -24 -10 -12
-13 20 -13 53 0 45 6 -3 10 -18 10 -33z"/>
<path d="M3022 4839 c-16 -66 -15 -86 3 -92 19 -8 22 -2 39 71 15 64 13 72
-14 72 -12 0 -20 -15 -28 -51z"/>
<path d="M3111 4851 c-25 -25 -36 -82 -21 -111 17 -33 70 -24 89 14 15 32 17
84 4 96 -21 20 -53 20 -72 1z m30 -72 l-10 -24 0 26 c-1 14 2 29 6 33 12 12
14 -9 4 -35z"/>
<path d="M1814 4854 c-9 -4 -7 -22 7 -66 20 -69 29 -81 47 -69 11 6 10 21 -4
74 -15 63 -23 72 -50 61z"/>
<path d="M1702 4818 c-16 -16 -15 -51 2 -93 15 -34 19 -37 51 -37 31 0 36 2
44 24 9 26 -4 85 -24 105 -17 16 -57 17 -73 1z m52 -54 c11 -28 6 -39 -9 -20
-8 11 -15 23 -15 28 0 14 18 9 24 -8z"/>
<path d="M3213 4768 c-21 -62 -19 -77 12 -78 9 0 28 51 47 125 2 6 -6 11 -17
13 -16 2 -24 -9 -42 -60z"/>
<path d="M1628 4792 c-10 -2 -18 -7 -18 -12 0 -6 38 -115 45 -127 0 -1 10 0
22 3 l21 6 -25 66 c-13 37 -25 67 -26 68 -1 0 -10 -1 -19 -4z"/>
<path d="M3295 4776 c-9 -13 -18 -40 -22 -59 -4 -30 -1 -38 20 -52 33 -21 63
-7 83 40 18 44 18 60 -2 79 -23 24 -61 20 -79 -8z m39 -50 c-3 -14 -10 -23
-15 -21 -4 3 -3 17 3 30 14 31 21 26 12 -9z"/>
<path d="M1518 4749 c-23 -13 -23 -48 -1 -94 20 -42 46 -52 80 -30 21 14 24
22 19 48 -13 65 -58 100 -98 76z m46 -55 c9 -23 7 -36 -3 -30 -12 8 -21 46
-11 46 4 0 11 -7 14 -16z"/>
<path d="M3409 4713 c-26 -60 -28 -86 -8 -90 11 -3 23 15 42 58 15 34 24 65
21 70 -13 22 -36 5 -55 -38z"/>
<path d="M3501 4714 c-38 -27 -58 -96 -35 -119 35 -34 78 -13 104 53 10 26 10
35 0 48 -24 28 -46 34 -69 18z m19 -74 c-16 -31 -23 -19 -9 16 6 16 13 24 16
17 2 -7 -1 -22 -7 -33z"/>
<path d="M1437 4707 c-17 -12 -17 -15 5 -62 32 -69 37 -75 53 -68 21 8 18 31
-13 91 -25 47 -29 51 -45 39z"/>
<path d="M3617 4672 c-2 -4 -19 -33 -36 -65 l-32 -57 22 -9 c19 -7 26 -2 47
38 13 25 28 53 32 62 6 10 3 19 -10 27 -11 6 -21 8 -23 4z"/>
<path d="M1333 4658 c-36 -43 3 -128 58 -128 49 0 61 49 26 101 -24 36 -66 50
-84 27z m57 -77 c0 -11 -4 -9 -15 5 -8 10 -15 25 -15 33 0 11 4 9 15 -5 8 -10
15 -25 15 -33z"/>
<path d="M3670 4610 c-22 -22 -40 -61 -40 -85 0 -8 11 -22 25 -31 23 -15 27
-15 50 0 49 32 64 97 29 123 -25 18 -41 16 -64 -7z m30 -59 c-6 -12 -15 -21
-21 -21 -5 0 -2 11 7 25 20 30 31 26 14 -4z"/>
<path d="M1250 4605 c-9 -11 -5 -25 21 -70 36 -59 37 -59 58 -46 10 7 6 21
-20 70 -19 33 -37 61 -40 61 -4 0 -12 -7 -19 -15z"/>
<path d="M1160 4552 c-18 -14 -21 -24 -16 -48 9 -38 50 -83 73 -79 10 2 21 4
25 4 14 2 29 42 23 61 -9 28 -54 80 -70 80 -7 0 -23 -8 -35 -18z m60 -75 c0
-5 -7 -4 -15 3 -8 7 -15 20 -15 29 1 13 3 13 15 -3 8 -11 15 -24 15 -29z"/>
<path d="M3759 4512 c-34 -54 -36 -59 -19 -70 15 -9 23 -3 55 44 35 54 40 84
13 84 -7 0 -29 -26 -49 -58z"/>
<path d="M3848 4508 c-48 -40 -61 -98 -27 -122 36 -25 81 3 100 62 11 32 10
37 -11 54 -26 21 -41 23 -62 6z m20 -67 c-7 -12 -16 -21 -21 -21 -8 0 -2 14
16 38 16 20 20 6 5 -17z"/>
<path d="M1078 4496 c-16 -11 -14 -17 23 -69 35 -50 43 -56 60 -46 19 9 17 13
-22 70 -23 32 -42 59 -43 59 -1 0 -9 -6 -18 -14z"/>
<path d="M986 4431 c-21 -23 -14 -58 20 -94 31 -34 68 -35 90 -2 15 23 15 27
-6 60 -35 56 -74 70 -104 36z m74 -74 c0 -6 -9 -2 -20 8 -11 10 -20 23 -20 28
0 6 9 2 20 -8 11 -10 20 -23 20 -28z"/>
<path d="M3927 4400 c-20 -27 -37 -54 -37 -59 0 -18 33 -21 46 -4 46 61 65 93
59 102 -12 21 -31 10 -68 -39z"/>
<path d="M3986 4359 c-42 -49 -31 -101 20 -101 34 0 84 51 84 85 0 55 -63 65
-104 16z m48 -34 c-16 -25 -42 -36 -28 -12 14 23 27 37 35 37 5 0 2 -11 -7
-25z"/>
<path d="M910 4366 c-9 -12 -5 -21 20 -49 17 -19 37 -43 44 -53 12 -15 16 -16
30 -5 18 15 15 21 -34 80 -38 45 -42 47 -60 27z"/>
<path d="M837 4302 c-25 -28 -21 -59 13 -92 48 -47 100 -36 100 20 0 29 -55
90 -81 90 -9 0 -23 -8 -32 -18z m58 -52 c10 -11 14 -20 8 -20 -5 0 -18 9 -28
20 -10 11 -14 20 -8 20 5 0 18 -9 28 -20z"/>
<path d="M4084 4274 c-48 -57 -48 -58 -30 -73 20 -17 112 85 95 105 -17 21
-22 18 -65 -32z"/>
<path d="M4170 4249 c-30 -11 -66 -62 -62 -87 11 -51 56 -56 101 -10 35 36 40
67 13 91 -21 19 -18 19 -52 6z m10 -64 c-7 -8 -17 -15 -23 -15 -5 0 -2 9 8 20
21 23 35 19 15 -5z"/>
<path d="M760 4225 c-10 -12 -4 -23 38 -65 47 -46 50 -48 66 -32 14 17 12 21
-32 65 -26 26 -50 47 -54 47 -3 0 -11 -7 -18 -15z"/>
<path d="M4228 4132 c-47 -45 -51 -53 -38 -66 13 -13 21 -9 67 32 47 43 51 49
38 66 -13 17 -17 16 -67 -32z"/>
<path d="M688 4153 c-9 -10 -14 -26 -12 -37 5 -30 55 -76 84 -76 57 0 67 54
20 100 -35 34 -70 38 -92 13z m77 -71 c-7 -7 -45 29 -45 41 0 6 11 0 25 -13
14 -13 23 -26 20 -28z"/>
<path d="M4315 4102 c-30 -6 -75 -53 -75 -77 0 -23 28 -55 49 -55 19 0 69 38
82 61 20 39 -12 81 -56 71z m1 -68 c-11 -7 -22 -11 -25 -8 -3 3 3 12 13 20 11
7 22 11 25 8 3 -3 -3 -12 -13 -20z"/>
<path d="M620 4075 c-7 -9 -11 -17 -9 -19 69 -61 102 -84 114 -80 25 10 17 29
-27 64 -24 19 -44 38 -46 42 -6 12 -18 9 -32 -7z"/>
<path d="M572 4012 c-20 -6 -34 -50 -22 -72 10 -19 70 -60 88 -60 19 0 50 41
45 60 -10 39 -78 84 -111 72z m53 -62 c10 -11 14 -20 9 -20 -12 1 -44 25 -44
34 0 12 17 6 35 -14z"/>
<path d="M4357 3977 c-52 -40 -55 -45 -40 -60 15 -14 20 -12 70 26 58 45 60
49 39 66 -10 9 -26 2 -69 -32z"/>
<path d="M4407 3925 c-51 -35 -59 -63 -28 -94 23 -23 56 -17 95 16 63 55 3
125 -67 78z m36 -47 c-13 -12 -26 -19 -29 -15 -4 4 1 14 12 22 29 22 41 18 17
-7z"/>
<path d="M495 3909 c-4 -11 -5 -22 -3 -24 1 -2 26 -19 55 -39 46 -31 53 -33
64 -20 11 14 8 20 -21 44 -19 16 -47 36 -62 44 -25 15 -27 15 -33 -5z"/>
<path d="M448 3839 c-28 -16 -23 -64 9 -88 41 -33 71 -37 95 -13 15 14 19 27
14 45 -10 42 -84 77 -118 56z m58 -54 c10 -8 14 -15 8 -15 -5 0 -19 7 -30 15
-10 8 -14 15 -8 15 5 0 19 -7 30 -15z"/>
<path d="M4475 3814 c-56 -38 -61 -46 -42 -62 10 -9 26 -2 69 26 47 31 55 40
47 55 -13 22 -15 22 -74 -19z"/>
<path d="M1573 3772 c-18 -2 -33 -6 -33 -10 0 -6 216 -264 343 -412 37 -43
239 -280 327 -385 46 -55 87 -102 90 -105 3 -3 132 -153 287 -335 155 -181
356 -418 448 -525 93 -107 187 -217 210 -245 24 -27 74 -86 111 -130 38 -44
78 -91 89 -105 46 -59 44 -151 29 1115 -4 374 -8 782 -8 908 -1 143 -5 227
-11 228 -13 2 -141 -3 -185 -6 -19 -2 -53 -4 -75 -4 -37 -2 -39 -3 -21 -16 14
-10 45 -15 103 -15 l83 0 0 -62 c1 -135 12 -440 25 -673 3 -49 7 -142 10 -205
3 -63 8 -155 10 -205 3 -49 8 -130 11 -180 2 -49 7 -216 11 -369 l6 -280 -93
110 c-52 60 -127 147 -168 194 -41 47 -84 96 -96 110 -53 62 -272 316 -276
320 -3 3 -48 55 -100 115 -52 61 -97 112 -100 115 -3 3 -35 39 -70 80 -36 41
-67 77 -70 80 -3 3 -36 41 -75 85 -38 44 -72 82 -75 85 -3 3 -75 84 -160 180
-85 96 -173 195 -196 220 -118 129 -224 254 -218 259 3 3 30 7 60 7 30 1 66 5
80 8 22 6 23 8 11 27 -13 18 -27 20 -148 22 -74 1 -149 1 -166 -1z"/>
<path d="M4507 3752 c-31 -19 -45 -57 -30 -81 27 -43 133 -5 133 48 0 51 -47
66 -103 33z m44 -43 c-13 -11 -26 -17 -29 -14 -7 6 29 34 43 34 6 0 -1 -9 -14
-20z"/>
<path d="M1207 3745 c-4 -9 -7 -18 -7 -20 0 -2 17 -1 38 2 64 9 161 -45 201
-111 17 -28 19 -55 21 -266 1 -129 3 -289 5 -355 2 -66 6 -253 9 -415 4 -162
9 -374 12 -470 2 -96 6 -321 9 -500 2 -179 4 -331 5 -338 0 -20 280 -16 280 4
0 11 -18 14 -82 14 -46 0 -88 4 -95 8 -16 10 -27 115 -48 487 -17 302 -27
1657 -12 1671 7 7 141 -136 412 -441 88 -99 312 -362 455 -534 30 -36 60 -72
67 -79 7 -8 26 -30 41 -50 15 -21 42 -54 61 -74 19 -21 41 -48 49 -60 9 -13
19 -25 22 -28 4 -3 98 -115 210 -250 112 -135 222 -267 246 -295 23 -27 95
-113 160 -190 186 -222 183 -220 222 -216 13 1 16 131 4 163 -6 13 -91 109
-207 232 -6 6 -51 56 -100 111 -49 55 -92 102 -95 105 -3 3 -30 34 -60 70 -30
36 -57 67 -60 70 -3 3 -45 52 -95 110 -49 58 -92 107 -95 110 -3 3 -71 81
-150 175 -143 167 -491 576 -534 625 -12 14 -86 102 -165 195 -79 94 -153 181
-165 195 -11 14 -48 59 -80 100 -139 175 -244 241 -412 257 -51 4 -62 3 -67
-12z"/>
<path d="M3515 3550 c0 -249 13 -282 30 -75 15 169 41 224 118 248 23 7 43 18
45 25 1 9 -23 12 -95 12 l-98 0 0 -210z"/>
<path d="M383 3734 c-11 -30 97 -95 122 -74 20 16 14 23 -50 59 -64 36 -64 36
-72 15z"/>
<path d="M336 3651 c-23 -25 -7 -65 34 -86 46 -24 82 -16 95 19 9 26 6 31 -25
57 -39 33 -79 37 -104 10z m84 -52 c0 -5 -11 -3 -25 3 -14 6 -25 15 -25 19 0
5 11 3 25 -3 14 -6 25 -15 25 -19z"/>
<path d="M4573 3638 c-55 -31 -58 -34 -44 -56 12 -19 135 44 127 65 -3 8 -6
17 -6 19 0 10 -29 0 -77 -28z"/>
<path d="M4615 3581 c-11 -5 -29 -18 -40 -31 -18 -20 -18 -23 -4 -48 12 -21
22 -27 47 -26 36 2 80 27 89 50 3 9 1 26 -5 40 -12 25 -46 31 -87 15z m45 -40
c0 -9 -41 -23 -49 -16 -3 4 28 20 47 24 1 1 2 -3 2 -8z"/>
<path d="M286 3555 c-3 -9 -6 -18 -6 -21 0 -2 28 -18 61 -35 49 -24 64 -28 70
-17 18 28 7 36 -112 86 -3 2 -9 -4 -13 -13z"/>
<path d="M256 3474 c-27 -26 -20 -62 17 -84 59 -37 107 -22 107 32 0 24 -7 32
-42 48 -52 24 -62 24 -82 4z m70 -49 c24 -18 7 -19 -26 0 -16 9 -19 14 -9 15
8 0 24 -7 35 -15z"/>
<path d="M4673 3462 c-44 -18 -63 -31 -63 -43 0 -10 3 -20 8 -22 9 -6 132 49
132 60 -1 29 -18 30 -77 5z"/>
<path d="M4703 3396 c-51 -17 -67 -39 -56 -73 8 -23 16 -29 44 -31 71 -5 128
62 83 99 -21 17 -33 18 -71 5z m37 -45 c0 -5 -11 -11 -25 -13 -26 -5 -35 6
-12 15 20 9 37 8 37 -2z"/>
<path d="M207 3361 c-6 -24 -8 -23 63 -50 67 -26 66 -26 73 -1 4 16 -4 23 -47
39 -28 11 -58 22 -67 26 -11 4 -18 0 -22 -14z"/>
<path d="M187 3287 c-46 -36 -3 -98 69 -101 31 -1 40 4 50 23 21 42 -7 72 -80
85 -14 2 -31 -1 -39 -7z m73 -47 c12 -8 9 -10 -12 -10 -15 0 -30 5 -33 10 -8
13 25 13 45 0z"/>
<path d="M4735 3271 c-47 -17 -68 -42 -47 -55 5 -3 37 4 71 15 46 16 61 25 59
37 -4 23 -25 24 -83 3z"/>
<path d="M4751 3201 c-37 -10 -53 -41 -38 -71 11 -22 19 -25 61 -23 56 2 76
16 76 52 0 47 -33 61 -99 42z m59 -36 c0 -8 -52 -26 -58 -20 -3 2 6 9 19 14
28 11 39 13 39 6z"/>
<path d="M144 3165 c-8 -20 2 -32 33 -39 16 -3 45 -10 66 -15 34 -8 37 -7 37
13 0 19 -10 25 -60 39 -72 20 -69 20 -76 2z"/>
<path d="M123 3074 c-19 -30 -11 -51 28 -72 31 -16 89 -11 102 9 19 30 0 67
-41 78 -56 16 -70 14 -89 -15z m87 -36 c0 -6 -7 -7 -16 -4 -9 3 -20 6 -25 6
-5 0 -9 4 -9 9 0 4 11 6 25 3 14 -2 25 -9 25 -14z"/>
<path d="M4786 3077 c-51 -12 -62 -23 -48 -45 7 -10 21 -9 73 4 75 19 71 17
63 38 -7 18 -19 19 -88 3z"/>
<path d="M4783 3000 c-33 -14 -41 -59 -14 -81 21 -17 41 -18 94 -4 30 8 47 48
30 74 -12 18 -77 25 -110 11z m67 -40 c0 -5 -12 -10 -27 -10 -22 0 -25 2 -13
10 20 13 40 13 40 0z"/>
<path d="M100 2966 c0 -9 0 -19 0 -23 0 -4 5 -8 12 -9 7 -2 27 -5 43 -9 17 -3
40 -7 51 -10 14 -3 24 1 28 12 9 22 -2 30 -48 37 -21 4 -50 9 -62 12 -18 5
-24 2 -24 -10z"/>
<path d="M86 2879 c-9 -13 -16 -29 -16 -35 0 -35 88 -66 127 -45 55 29 24 90
-49 98 -39 5 -47 2 -62 -18z m93 -35 c2 -2 -10 -4 -27 -4 -18 0 -32 4 -32 9 0
9 49 5 59 -5z"/>
<path d="M4823 2878 c-43 -8 -53 -13 -53 -30 0 -18 4 -19 53 -13 100 14 101
14 91 39 -7 18 -15 18 -91 4z"/>
<path d="M4800 2790 c-23 -23 -24 -33 -10 -61 14 -25 100 -27 124 -3 19 18 21
55 4 72 -20 20 -95 15 -118 -8z m80 -30 c0 -5 -12 -10 -26 -10 -14 0 -23 4
-19 10 3 6 15 10 26 10 10 0 19 -4 19 -10z"/>
<path d="M67 2756 c-8 -21 -1 -24 76 -32 64 -6 67 -6 67 15 0 11 -1 21 -2 21
-2 0 -33 3 -69 6 -55 5 -67 4 -72 -10z"/>
<path d="M78 2688 c-19 -16 -30 -49 -20 -64 13 -19 46 -31 82 -29 48 3 45 2
58 29 9 20 8 29 -6 46 -21 26 -90 36 -114 18z m72 -48 c-14 -8 -50 -2 -50 9 0
4 14 5 31 3 19 -3 26 -7 19 -12z"/>
<path d="M4847 2682 c-32 -2 -50 -8 -54 -19 -8 -19 11 -31 45 -27 15 1 43 2
63 3 30 1 35 4 34 23 -2 23 -9 25 -88 20z"/>
<path d="M4817 2598 c-24 -18 -29 -55 -11 -73 19 -18 105 -20 122 -3 19 19 15
66 -7 78 -27 14 -84 13 -104 -2z m78 -38 c4 -6 -7 -10 -25 -10 -18 0 -29 4
-25 10 3 6 15 10 25 10 10 0 22 -4 25 -10z"/>
<path d="M57 2562 c-14 -29 0 -36 68 -37 63 0 70 2 70 20 0 17 -8 19 -67 21
-38 1 -69 -1 -71 -4z"/>
<path d="M83 2490 c-31 -12 -40 -55 -18 -80 22 -24 81 -27 113 -4 25 17 29 56
8 73 -19 16 -76 21 -103 11z m75 -45 c-10 -11 -48 -14 -53 -4 -4 5 8 9 26 9
18 0 30 -2 27 -5z"/>
<path d="M4795 2471 c-12 -20 23 -36 81 -36 54 0 59 2 62 23 3 21 0 22 -67 22
-38 0 -72 -4 -76 -9z"/>
<path d="M4806 2394 c-20 -19 -21 -58 -3 -73 22 -18 93 -20 116 -4 28 19 27
58 -1 77 -29 21 -92 20 -112 0z m80 -37 c4 -4 -5 -7 -19 -7 -15 0 -27 4 -27 8
0 10 36 9 46 -1z"/>
<path d="M92 2362 c-28 -3 -33 -7 -30 -25 3 -19 8 -21 48 -18 25 2 55 4 68 4
16 1 22 7 22 24 0 24 -6 25 -108 15z"/>
<path d="M117 2293 c-15 -2 -35 -15 -43 -29 -15 -22 -15 -26 0 -49 18 -27 62
-33 110 -15 21 8 26 16 26 45 0 29 -5 37 -26 45 -14 6 -28 9 -32 9 -4 -1 -19
-4 -35 -6z m51 -48 c-11 -11 -58 -15 -58 -5 0 5 14 10 32 10 17 0 29 -2 26 -5z"/>
<path d="M4793 2276 c-14 -21 -11 -36 5 -36 10 -1 43 -3 75 -7 53 -5 57 -4 57
16 0 14 -6 21 -20 21 -11 0 -23 1 -27 2 -52 12 -84 14 -90 4z"/>
<path d="M4788 2199 c-22 -12 -24 -62 -4 -78 8 -7 35 -14 60 -16 40 -3 48 0
62 20 9 13 13 33 10 43 -12 36 -89 54 -128 31z m73 -39 c6 0 8 -4 5 -9 -8 -12
-46 -2 -46 11 0 6 7 7 16 4 9 -3 20 -6 25 -6z"/>
<path d="M150 2165 c-57 -9 -65 -13 -68 -33 -3 -21 -1 -23 25 -18 15 3 46 8
68 11 46 6 55 14 46 35 -5 13 -16 14 -71 5z"/>
<path d="M128 2084 c-29 -15 -38 -43 -24 -73 9 -21 15 -23 60 -18 56 5 88 33
79 67 -10 39 -66 50 -115 24z m57 -44 c-28 -12 -47 -12 -40 0 3 6 18 10 33 9
24 0 25 -1 7 -9z"/>
<path d="M4756 2074 c-9 -23 -7 -24 66 -39 47 -9 65 -10 70 -1 14 21 1 30 -58
43 -75 16 -71 16 -78 -3z"/>
<path d="M4751 2003 c-47 -33 -15 -84 60 -98 31 -6 39 -3 53 16 9 13 16 28 16
34 0 41 -92 75 -129 48z m69 -43 c12 -8 9 -10 -12 -10 -16 0 -28 5 -28 10 0
13 20 13 40 0z"/>
<path d="M177 1965 c-57 -16 -61 -19 -53 -41 7 -17 23 -16 107 6 30 8 36 14
32 30 -6 23 -19 24 -86 5z"/>
<path d="M183 1890 c-36 -15 -47 -47 -28 -77 15 -22 22 -25 57 -20 64 9 101
60 66 95 -14 14 -63 15 -95 2z m63 -39 c-7 -11 -56 -21 -56 -10 0 4 8 10 18
12 30 8 43 7 38 -2z"/>
<path d="M4707 1880 c-4 -17 4 -22 61 -40 66 -19 90 -16 79 13 -3 8 -27 20
-54 27 -26 6 -55 14 -64 16 -10 3 -19 -3 -22 -16z"/>
<path d="M4693 1808 c-32 -42 -13 -80 47 -96 51 -13 80 2 80 43 0 27 -6 35
-34 49 -41 19 -80 21 -93 4z m83 -49 c6 -10 -2 -11 -33 -3 -13 4 -23 10 -23
14 0 10 49 0 56 -11z"/>
<path d="M235 1771 c-37 -13 -51 -23 -53 -39 -4 -27 -9 -27 73 -1 51 15 65 24
63 37 -4 23 -24 24 -83 3z"/>
<path d="M1432 1653 c-12 -76 -24 -160 -27 -188 -8 -71 -24 -148 -34 -163 -4
-7 -30 -19 -57 -26 l-49 -13 83 -2 c59 0 82 3 82 12 1 6 5 44 10 82 11 78 26
435 18 435 -3 0 -14 -62 -26 -137z"/>
<path d="M257 1702 c-23 -9 -39 -23 -43 -37 -8 -33 12 -65 42 -65 29 0 94 25
95 37 0 4 2 16 4 25 8 43 -42 63 -98 40z m49 -41 c-8 -12 -46 -21 -46 -11 0 9
18 18 38 19 7 1 11 -3 8 -8z"/>
<path d="M4646 1694 c-8 -21 -13 -17 62 -47 62 -24 63 -25 73 -5 13 23 17 19
-54 46 -70 26 -73 27 -81 6z"/>
<path d="M4637 1632 c-21 -4 -39 -45 -31 -66 3 -8 26 -25 50 -37 42 -20 46
-20 69 -5 34 22 33 59 -2 84 -32 22 -60 30 -86 24z m68 -64 c7 -7 2 -8 -15 -3
-14 4 -29 12 -35 17 -7 7 -2 8 15 3 14 -4 30 -12 35 -17z"/>
<path d="M310 1583 c-66 -30 -60 -24 -54 -50 6 -20 7 -20 74 10 61 27 67 32
57 49 -14 22 -9 22 -77 -9z"/>
<path d="M327 1512 c-31 -19 -41 -43 -32 -72 14 -43 100 -32 132 17 14 21 14
25 -1 48 -19 29 -57 32 -99 7z m63 -30 c0 -5 -11 -14 -25 -20 -16 -7 -25 -8
-25 -1 0 5 10 14 23 19 29 11 27 11 27 2z"/>
<path d="M4571 1512 c-9 -16 -2 -23 50 -46 56 -27 89 -29 89 -6 0 8 -109 70
-124 70 -3 0 -10 -8 -15 -18z"/>
<path d="M4542 1444 c-30 -21 -28 -58 5 -83 34 -28 66 -35 91 -22 47 25 28 78
-39 105 -32 13 -38 13 -57 0z m73 -55 c16 -16 -20 -10 -41 7 -18 14 -18 15 6
8 14 -3 29 -10 35 -15z"/>
<path d="M397 1401 c-60 -35 -61 -36 -50 -56 8 -14 16 -12 69 15 71 38 66 33
58 54 -8 22 -21 20 -77 -13z"/>
<path d="M460 1353 c-42 -16 -70 -45 -70 -73 0 -54 57 -63 113 -19 33 25 35
62 5 83 -24 17 -25 17 -48 9z m10 -62 c-13 -11 -28 -17 -33 -14 -11 6 23 32
43 32 10 1 7 -6 -10 -18z"/>
<path d="M4480 1341 c-13 -25 -13 -31 1 -31 7 0 33 -13 60 -29 43 -27 49 -28
61 -14 14 17 10 21 -73 71 -37 22 -38 22 -49 3z"/>
<path d="M4432 1268 c-30 -30 -9 -74 50 -104 27 -14 32 -14 54 1 35 23 31 58
-9 89 -36 28 -76 33 -95 14z m84 -65 c-7 -7 -46 16 -46 28 0 5 11 2 25 -7 14
-9 24 -19 21 -21z"/>
<path d="M497 1226 c-48 -34 -52 -39 -38 -64 6 -10 21 -4 62 24 30 20 55 38
57 39 7 5 -11 35 -22 34 -6 0 -33 -15 -59 -33z"/>
<path d="M543 1169 c-35 -22 -48 -48 -38 -79 10 -31 49 -35 89 -11 41 26 53
54 35 87 -15 29 -44 30 -86 3z m42 -39 c-10 -11 -25 -20 -34 -20 -10 0 -5 8
14 20 38 25 43 25 20 0z"/>
<path d="M4377 1183 c-16 -15 -4 -33 44 -68 47 -33 53 -35 67 -21 9 8 14 17
11 19 -36 30 -103 77 -109 77 -4 0 -10 -3 -13 -7z"/>
<path d="M4316 1098 c-23 -32 -20 -42 19 -77 55 -48 105 -38 105 21 0 20 -9
34 -37 53 -46 31 -67 32 -87 3z m68 -44 c9 -8 16 -18 16 -20 0 -7 -38 15 -45
26 -10 16 12 12 29 -6z"/>
<path d="M613 1059 c-45 -36 -50 -43 -40 -59 6 -11 16 -16 22 -11 80 59 105
85 94 97 -16 19 -18 19 -76 -27z"/>
<path d="M4255 1020 c-15 -17 -13 -20 36 -59 28 -22 56 -41 61 -41 21 0 19 32
-3 51 -13 11 -36 31 -51 44 -25 23 -27 23 -43 5z"/>
<path d="M651 995 c-17 -20 -31 -39 -31 -43 0 -20 34 -52 55 -52 33 0 97 64
88 88 -20 55 -67 58 -112 7z m49 -30 c-13 -14 -26 -23 -28 -20 -7 7 29 45 41
45 6 0 0 -11 -13 -25z"/>
<path d="M4189 949 c-31 -31 -12 -76 44 -105 25 -14 31 -14 53 1 35 23 31 57
-11 94 -42 36 -58 38 -86 10z m66 -49 c10 -11 14 -20 8 -20 -5 0 -18 9 -28 20
-10 11 -14 20 -8 20 5 0 18 -9 28 -20z"/>
<path d="M746 908 c-35 -32 -46 -48 -41 -60 10 -26 16 -23 73 28 44 39 49 48
37 60 -7 8 -15 14 -17 14 -3 0 -26 -19 -52 -42z"/>
<path d="M824 877 c-25 -14 -38 -28 -53 -55 -10 -19 -10 -28 4 -48 23 -35 57
-31 94 11 34 40 39 66 15 86 -21 17 -36 19 -60 6z m16 -62 c-7 -8 -17 -15 -23
-15 -5 0 -2 9 8 20 21 23 35 19 15 -5z"/>
<path d="M4120 875 c-11 -14 -6 -23 35 -65 27 -28 52 -50 56 -50 4 0 10 9 14
19 4 13 -7 32 -36 65 -47 51 -51 53 -69 31z"/>
<path d="M4050 810 c-28 -28 -25 -51 13 -88 40 -39 71 -41 93 -7 15 23 15 27
-1 53 -21 32 -55 61 -72 62 -7 0 -22 -9 -33 -20z m70 -73 c0 -6 -9 -2 -20 8
-11 10 -20 23 -20 28 0 6 9 2 20 -8 11 -10 20 -23 20 -28z"/>
<path d="M886 763 c-41 -44 -44 -49 -29 -65 14 -16 18 -13 63 35 35 38 45 55
38 65 -16 19 -23 15 -72 -35z"/>
<path d="M3978 746 c-15 -11 -13 -17 23 -62 42 -50 62 -63 74 -45 8 13 0 26
-45 79 -30 34 -38 38 -52 28z"/>
<path d="M947 722 c-15 -16 -29 -39 -32 -51 -4 -23 25 -61 48 -61 38 0 93 73
80 107 -15 42 -59 44 -96 5z m41 -41 c-7 -12 -16 -21 -21 -21 -8 0 -2 14 16
38 16 20 20 6 5 -17z"/>
<path d="M3897 682 c-10 -10 -17 -26 -17 -36 0 -26 50 -86 72 -86 57 0 75 46
36 96 -38 50 -63 57 -91 26z m53 -47 c6 -8 10 -20 8 -26 -2 -6 -12 0 -21 15
-18 27 -8 37 13 11z"/>
<path d="M1049 643 c-51 -70 -51 -71 -31 -82 16 -9 24 -3 53 36 51 70 51 71
31 82 -16 9 -24 3 -53 -36z"/>
<path d="M3821 626 c-12 -14 -8 -24 24 -71 32 -46 40 -53 57 -44 17 9 18 12 3
37 -9 15 -29 42 -44 60 -24 30 -28 32 -40 18z"/>
<path d="M1101 589 c-35 -47 -30 -78 12 -93 30 -11 59 9 84 57 13 25 13 31 -2
53 -24 38 -59 32 -94 -17z m49 -28 c-6 -12 -15 -21 -21 -21 -10 0 -5 13 14 38
15 19 20 7 7 -17z"/>
<path d="M1207 517 c-36 -57 -38 -62 -21 -74 16 -12 22 -7 57 48 21 33 37 62
35 63 -2 1 -10 7 -18 13 -13 10 -22 1 -53 -50z"/>
<path d="M3726 559 c-18 -26 -6 -66 29 -99 48 -45 109 3 79 62 -31 60 -80 77
-108 37z m69 -67 c-6 -7 -34 29 -34 43 0 6 9 -1 20 -14 11 -13 17 -26 14 -29z"/>
<path d="M1305 520 c-30 -11 -59 -71 -51 -103 9 -36 49 -46 78 -21 26 24 47
71 41 94 -6 23 -43 39 -68 30z m15 -69 c-6 -12 -15 -21 -21 -21 -5 0 -2 11 7
25 20 30 31 26 14 -4z"/>
<path d="M3652 518 c-9 -9 -6 -22 14 -57 36 -63 49 -75 68 -64 13 7 10 17 -20
71 -37 65 -42 70 -62 50z"/>
<path d="M3565 468 c-30 -23 -28 -51 6 -100 23 -32 59 -37 84 -12 26 26 0 100
-44 123 -15 8 -25 6 -46 -11z m55 -77 c0 -11 -4 -10 -15 5 -8 10 -14 26 -14
34 0 11 3 10 14 -4 8 -11 15 -27 15 -35z"/>
<path d="M1382 417 c-32 -58 -33 -62 -16 -74 16 -12 21 -7 51 44 38 68 39 69
15 82 -14 8 -22 -1 -50 -52z"/>
<path d="M3483 433 c-19 -7 -16 -21 15 -83 20 -40 32 -55 45 -52 22 5 22 11
-8 76 -27 59 -33 66 -52 59z"/>
<path d="M1469 420 c-8 -5 -22 -28 -29 -50 -17 -51 -6 -74 38 -78 27 -3 35 2
52 30 44 72 4 136 -61 98z m29 -65 c-16 -35 -29 -31 -15 4 6 17 14 28 19 25 4
-3 2 -16 -4 -29z"/>
<path d="M3381 381 c-20 -20 -21 -35 -3 -81 14 -38 38 -53 67 -46 31 8 39 26
31 69 -13 64 -60 93 -95 58z m59 -73 c0 -4 -4 -8 -10 -8 -5 0 -10 4 -10 9 0 5
-3 18 -6 28 -5 16 -4 16 10 -1 9 -11 16 -23 16 -28z"/>
<path d="M1565 334 c-30 -67 -30 -71 -7 -83 16 -8 22 -1 44 57 19 48 23 69 15
74 -21 14 -27 9 -52 -48z"/>
<path d="M1650 338 c-36 -39 -39 -111 -5 -124 41 -16 77 16 89 83 10 49 -50
78 -84 41z m35 -57 c-3 -12 -11 -21 -16 -21 -6 0 -8 3 -6 8 2 4 7 16 11 26 9
25 20 13 11 -13z"/>
<path d="M3303 353 c-18 -7 -16 -22 10 -84 16 -41 26 -54 40 -51 9 2 17 9 17
15 0 16 -44 127 -50 126 -3 0 -11 -3 -17 -6z"/>
<path d="M3203 320 c-28 -11 -31 -56 -7 -106 13 -26 22 -34 43 -34 15 0 32 5
39 12 26 26 3 118 -33 132 -9 3 -17 6 -18 5 -1 0 -12 -4 -24 -9z m47 -82 c0
-4 -4 -8 -10 -8 -5 0 -10 4 -10 9 0 5 -3 18 -6 28 -5 16 -4 16 10 -1 9 -11 16
-23 16 -28z"/>
<path d="M1766 308 c-2 -7 -11 -35 -19 -63 -17 -53 -15 -65 11 -65 12 0 22 17
35 61 10 33 15 64 12 70 -9 13 -35 11 -39 -3z"/>
<path d="M1853 287 c-27 -12 -50 -86 -34 -115 17 -31 50 -34 77 -7 13 13 25
33 25 45 1 11 2 26 3 33 6 37 -33 61 -71 44z m18 -84 c-9 -16 -10 -16 -11 -1
0 9 3 25 7 35 7 16 8 17 11 1 2 -10 -1 -25 -7 -35z"/>
<path d="M3117 293 c-14 -4 -17 -11 -13 -26 4 -12 12 -43 18 -69 12 -49 15
-52 41 -42 11 4 13 13 7 37 -13 49 -31 107 -33 106 -1 -1 -10 -3 -20 -6z"/>
<path d="M1946 203 c-15 -65 -11 -82 16 -83 10 0 27 59 30 105 2 30 -1 40 -14
43 -13 2 -19 -11 -32 -65z"/>
<path d="M2997 253 c-12 -14 -14 -28 -7 -62 9 -50 31 -72 63 -65 31 6 46 30
40 67 -10 69 -59 100 -96 60z m53 -68 c0 -17 -2 -17 -10 -5 -5 8 -10 24 -10
35 0 17 2 17 10 5 5 -8 10 -24 10 -35z"/>
<path d="M2043 242 c-31 -20 -42 -101 -17 -126 40 -40 83 -9 91 65 6 53 -34
86 -74 61z m29 -67 c-2 -14 -9 -25 -14 -25 -6 0 -7 7 -4 16 3 9 6 20 6 25 0 5
4 9 9 9 4 0 6 -11 3 -25z"/>
<path d="M2911 228 c2 -37 23 -119 32 -119 4 1 14 1 23 1 8 0 13 3 11 8 -3 4
-8 25 -11 46 -12 72 -18 86 -37 86 -13 0 -19 -7 -18 -22z"/>
<path d="M2812 224 c-36 -25 -28 -113 11 -131 22 -10 66 -1 68 14 9 64 -6 115
-36 127 -21 8 -17 9 -43 -10z m38 -72 c0 -21 -2 -24 -10 -12 -13 20 -13 53 0
45 6 -3 10 -18 10 -33z"/>
<path d="M2149 208 c-1 -25 -6 -60 -14 -95 -4 -19 -1 -23 19 -23 23 0 26 5 32
60 4 33 7 63 8 67 0 5 -9 9 -21 11 -18 3 -23 -2 -24 -20z"/>
<path d="M2231 206 c-7 -8 -14 -34 -17 -58 -7 -54 17 -83 60 -72 32 8 36 13
42 67 4 33 1 48 -11 60 -20 21 -58 22 -74 3z m42 -67 c-8 -31 -20 -22 -15 12
3 19 7 26 12 19 4 -7 5 -21 3 -31z"/>
<path d="M2723 214 c-7 -3 -10 -18 -7 -37 6 -43 12 -91 13 -99 1 -3 11 -4 22
-1 19 5 21 11 15 51 -3 25 -6 55 -6 68 0 23 -11 28 -37 18z"/>
<path d="M2349 193 c-1 -10 -3 -38 -5 -63 -5 -58 1 -74 23 -62 12 7 18 27 20
76 4 61 3 66 -16 66 -13 0 -21 -7 -22 -17z"/>
<path d="M2527 203 c-12 -11 -8 -131 5 -139 15 -10 35 20 32 48 -1 13 -3 40
-3 61 -1 35 -16 48 -34 30z"/>
<path d="M2602 198 c-20 -20 -15 -95 9 -119 20 -20 51 -19 73 1 12 12 9 100
-5 116 -14 17 -61 18 -77 2z m48 -60 c0 -17 -3 -28 -7 -24 -9 9 -13 38 -7 48
10 15 14 8 14 -24z"/>
<path d="M2412 188 c-19 -19 -15 -102 6 -121 41 -38 82 -5 82 64 0 51 -13 69
-50 69 -14 0 -31 -5 -38 -12z m48 -57 c0 -11 -4 -23 -10 -26 -6 -4 -10 5 -10
19 0 14 5 26 10 26 6 0 10 -9 10 -19z"/>
</g>
</svg>
